<?xml version="1.0" encoding="UTF-8"?>
<svg id="Layer_2" xmlns="http://www.w3.org/2000/svg" viewBox="0 0 45.53 45.55">
  <g id="Layer_1-2" data-name="Layer_1">
    <g>
      <path d="M37.3,40.29c-.55,0-1,.45-1,1v1.17c0,.59-.48,1.08-1.08,1.08h-15.03v-5.74c0-.55-.45-1-1-1h-1.53c-.75,0-1.4-.54-1.45-1.2-.03-.39.1-.75.38-1.03.11-.11.23-.18.36-.24.03-.01.05-.03.08-.04,0,0,0,0,0,0,.16-.06.34-.09.52-.09h1.54s.02,0,.02,0h.06c.55,0,1-.45,1-1v-5.74h4.74v.54c0,1.75,1.3,3.26,2.97,3.42.93.09,1.86-.21,2.56-.84.69-.63,1.09-1.52,1.09-2.45v-.67h4.75v6.2c0,.55.45,1,1,1s1-.45,1-1v-7.2c0-.55-.45-1-1-1h-6.75c-.55,0-1,.45-1,1v1.67c0,.37-.16.72-.43.97-.28.25-.65.37-1.01.33-.66-.07-1.17-.7-1.17-1.43v-1.54c0-.55-.45-1-1-1h-5.82v-4.74h.67c.88,0,1.71-.34,2.34-.97.68-.69,1.03-1.63.96-2.6-.13-1.71-1.65-3.04-3.44-3.04h-.53v-5.74c0-.55-.45-1-1-1H3.08c-1.7,0-3.08,1.38-3.08,3.08v16.02s0,0,0,0,0,0,0,0v16.03c0,1.7,1.38,3.08,3.08,3.08h16.02s.05-.01.08-.02c0,0,0,0,0,0h16.03c1.7,0,3.08-1.38,3.08-3.08v-1.17c0-.55-.45-1-1-1ZM2,10.41c0-.59.48-1.08,1.08-1.08h15.03v5.74c0,.55.45,1,1,1h1.53c.75,0,1.4.54,1.45,1.2.03.39-.1.75-.38,1.03-.25.25-.58.38-.92.38h-1.67c-.55,0-1,.45-1,1v5.74h-4.74v-.54s0-.07,0-.11v-.02c0-.13-.02-.25-.04-.38,0-.05,0-.09-.01-.14-.11-.69-.42-1.32-.92-1.82-.08-.08-.18-.15-.28-.22-.03-.02-.06-.05-.09-.07-.11-.08-.23-.16-.35-.23-.11-.07-.23-.12-.35-.17-.06-.03-.12-.06-.19-.08-.19-.07-.39-.12-.6-.15-.01,0-.03,0-.04,0-.03,0-.06-.02-.1-.02-.15-.01-.3,0-.46,0-.05,0-.1,0-.16,0h0s-.02,0-.03,0c-.1,0-.2.04-.3.06-.11.02-.23.04-.34.07-.14.04-.27.1-.4.16-.05.02-.1.04-.15.07-.26.13-.5.28-.72.48-.56.51-.92,1.19-1.03,1.93-.01.07-.01.14-.02.22,0,.1-.03.2-.03.31v.04s0,.07,0,.11v.52H2v-15.02ZM18.1,43.55H3.08c-.59,0-1.08-.48-1.08-1.08v-15.03h5.74c.14,0,.27-.03.4-.08.36-.15.61-.51.61-.92v-1.58c.03-.72.55-1.34,1.19-1.39.1,0,.2,0,.3.01.13.02.25.06.37.12.02.01.05.02.07.04.39.24.66.69.68,1.21v1.6c0,.55.45,1,1,1h5.74v4.74h-.58c-.54,0-1.06.14-1.53.39-.1.05-.2.1-.3.16,0,0,0,0-.01.01-.84.53-1.44,1.4-1.54,2.41-.09.93.21,1.87.84,2.56.63.69,1.52,1.09,2.45,1.09h.67v4.75Z"/>
      <path d="M43.08,0h-16.02c-.21,0-.38.17-.38.38v6.75c0,.21.17.38.38.38h1.67c.54,0,1.07.23,1.43.64.37.41.54.94.49,1.5-.1.97-1,1.73-2.06,1.73h-1.54c-.21,0-.38.17-.38.38v6.74c0,.21.17.38.38.38h6.37v1.3c0,.72.28,1.39.79,1.9.51.5,1.19.79,1.9.79.07,0,.14,0,.21,0,1.38-.11,2.47-1.35,2.47-2.82v-1.15h6.37c.21,0,.38-.17.38-.38V2.45c0-1.35-1.1-2.45-2.45-2.45Z"/>
      <path d="M37.3,36.21c-.66,0-1.2.54-1.2,1.2s.54,1.2,1.2,1.2,1.2-.54,1.2-1.2-.54-1.2-1.2-1.2Z"/>
    </g>
  </g>
</svg>