<?xml version="1.0" encoding="UTF-8"?>
<svg id="Layer_2" xmlns="http://www.w3.org/2000/svg" viewBox="0 0 41.29 29.97">
  <g id="Layer_1-2" data-name="Layer_1">
    <path d="M32.54,23.74c-.45,0-.9-.17-1.24-.51-.68-.68-.68-1.79,0-2.47l5.77-5.76-5.77-5.76c-.68-.68-.68-1.79,0-2.47s1.79-.68,2.47,0l7,7c.33.33.51.77.51,1.24s-.18.91-.51,1.24l-7,7c-.34.34-.79.51-1.24.51Z"/>
    <path d="M15.56,29.97c-.21,0-.42-.04-.63-.12-.9-.35-1.35-1.36-1-2.26L24.11,1.12c.35-.9,1.36-1.35,2.26-1,.9.35,1.35,1.36,1,2.26l-10.18,26.46c-.27.7-.93,1.12-1.63,1.12Z"/>
    <path d="M8.73,23.74c-.45,0-.9-.17-1.24-.51L.51,16.24c-.68-.68-.68-1.79,0-2.47l7.02-7.02c.68-.68,1.79-.68,2.47,0s.68,1.79,0,2.47l-5.79,5.79,5.74,5.74c.68.68.68,1.79,0,2.47-.34.34-.79.51-1.24.51Z"/>
  </g>
</svg>