<?xml version="1.0" encoding="UTF-8"?>
<svg id="Layer_2" xmlns="http://www.w3.org/2000/svg" viewBox="0 0 32.47 54.13">
  <g id="Layer_1-2" data-name="Layer_1">
    <g>
      <path d="M21.06,38.24c-.44-.63-1.36-.66-1.84-.06-1.02,1.28-1.4,1.76-2.98,3.49-1.86,2.04-5.69,2.79-7.73,2.13-.46-.15-.97.05-1.25.45l-2.36,3.41c-.53.76.02,1.8.94,1.8h20.79c.93,0,1.47-1.04.94-1.8l-6.51-9.42Z"/>
      <circle cx="13.14" cy="38.3" r="1.11"/>
      <path d="M15.3,29.82c0,1.02.83,1.85,1.85,1.85s1.85-.83,1.85-1.85-.83-1.85-1.85-1.85-1.85.83-1.85,1.85Z"/>
      <circle cx="14.52" cy="5.92" r="2.49"/>
      <circle cx="18.43" cy=".94" r=".94"/>
      <path d="M15.27,21.17c.41,0,.75-.34.75-.75s-.34-.75-.75-.75-.75.34-.75.75.34.75.75.75Z"/>
      <path d="M31.44,45.04l-7.88-11.41c-.22-.31-.33-.68-.33-1.05v-15.16l.72-.72c.95-.95,1.23-2.36.72-3.6-.51-1.24-1.71-2.04-3.06-2.04h-10.74c-1.34,0-2.54.8-3.05,2.04s-.24,2.65.71,3.6l.71.72v15.17c0,.38-.11.74-.33,1.05l-7.88,11.41c-1.23,1.77-1.37,4.06-.36,5.98,1,1.91,2.97,3.1,5.13,3.1h20.88c2.16,0,4.12-1.19,5.13-3.1,1-1.91.86-4.2-.36-5.98ZM26.68,51.63H5.79c-2.65,0-4.22-2.98-2.71-5.16l7.88-11.41c.5-.73.77-1.59.77-2.47v-15.72c0-.3-.12-.6-.33-.81l-1.11-1.11c-.51-.51-.14-1.38.57-1.38h10.74c.72,0,1.08.87.57,1.38l-1.11,1.11c-.22.22-.34.51-.34.81v15.72c0,.88.27,1.75.77,2.48l7.88,11.41c1.51,2.18-.05,5.16-2.71,5.16Z"/>
    </g>
  </g>
</svg>