<?xml version="1.0" encoding="UTF-8"?>
<svg id="Layer_2" xmlns="http://www.w3.org/2000/svg" viewBox="0 0 50.49 50.24">
  <g id="Layer_1-2" data-name="Layer_1">
    <g>
      <path d="M4.1,23.5H1.75c-.97,0-1.75.78-1.75,1.75s.78,1.75,1.75,1.75h2.35c.97,0,1.75-.78,1.75-1.75s-.78-1.75-1.75-1.75Z"/>
      <path d="M11.21,8.74l-1.41-1.41c-.68-.68-1.79-.68-2.47,0s-.68,1.79,0,2.47l1.41,1.41c.34.34.79.51,1.24.51s.9-.17,1.24-.51c.68-.68.68-1.79,0-2.47Z"/>
      <path d="M25.25,5.85c.97,0,1.75-.78,1.75-1.75V1.75c0-.97-.78-1.75-1.75-1.75s-1.75.78-1.75,1.75v2.35c0,.97.78,1.75,1.75,1.75Z"/>
      <path d="M40.69,7.33l-1.41,1.41c-.68.68-.68,1.79,0,2.47.34.34.79.51,1.24.51s.9-.17,1.24-.51l1.41-1.41c.68-.68.68-1.79,0-2.47s-1.79-.68-2.47,0Z"/>
      <path d="M48.74,23.5h-2.35c-.97,0-1.75.78-1.75,1.75s.78,1.75,1.75,1.75h2.35c.97,0,1.75-.78,1.75-1.75s-.78-1.75-1.75-1.75Z"/>
      <path d="M25.25,10.22c-7.97,0-14.46,6.49-14.46,14.46,0,5.23,2.88,10.08,7.4,12.62v.33c0,1.86,0,2.88.4,3.84.53,1.28,1.53,2.28,2.82,2.82.96.39,1.98.39,3.84.39s2.88,0,3.84-.4c1.28-.53,2.28-1.53,2.81-2.82.4-.96.4-1.98.4-3.84v-.33c4.53-2.54,7.4-7.39,7.4-12.62,0-7.97-6.49-14.46-14.46-14.46ZM30.16,35.04c-.52.25-.86.78-.86,1.35v1.25c0,1.43,0,2.29-.17,2.69-.23.54-.65.97-1.19,1.19-.41.17-1.27.17-2.69.17s-2.29,0-2.69-.17c-.54-.23-.97-.65-1.19-1.19-.17-.41-.17-1.27-.17-2.69v-1.25c0-.58-.33-1.11-.86-1.35-3.98-1.89-6.55-5.95-6.55-10.36,0-6.32,5.14-11.46,11.46-11.46s11.46,5.14,11.46,11.46c0,4.4-2.57,8.47-6.55,10.36Z"/>
      <path d="M29.87,47.24h-9.25c-.83,0-1.5.67-1.5,1.5s.67,1.5,1.5,1.5h9.25c.83,0,1.5-.67,1.5-1.5s-.67-1.5-1.5-1.5Z"/>
      <path d="M30.98,27.63l-3.14-1.98c-.38-.24-.88-.19-1.22.12l-3.63,3.4-2.37-1.66c-.45-.32-1.08-.21-1.39.25-.32.45-.21,1.08.25,1.39l3.03,2.12c.17.12.37.18.57.18.25,0,.49-.09.68-.27l3.66-3.42,2.49,1.57c.47.29,1.08.15,1.38-.31.29-.47.15-1.08-.31-1.38Z"/>
    </g>
  </g>
</svg>