<?xml version="1.0" encoding="UTF-8"?>
<svg id="Layer_2" xmlns="http://www.w3.org/2000/svg" viewBox="0 0 44.13 40.02">
  <g id="Layer_1-2" data-name="Layer_1">
    <g>
      <path d="M16.15,21.98c-.26,0-.51-.1-.71-.29l-4.08-4.08c-.19-.19-.29-.44-.29-.71s.11-.52.29-.71l4.08-4.08c.39-.39,1.02-.39,1.41,0s.39,1.02,0,1.41l-3.37,3.37,3.37,3.37c.39.39.39,1.02,0,1.41-.2.2-.45.29-.71.29Z"/>
      <path d="M27.99,21.98c-.26,0-.51-.1-.71-.29-.39-.39-.39-1.02,0-1.41l3.37-3.37-3.37-3.37c-.39-.39-.39-1.02,0-1.41s1.02-.39,1.41,0l4.08,4.08c.19.19.29.44.29.71s-.11.52-.29.71l-4.08,4.08c-.2.2-.45.29-.71.29Z"/>
      <path d="M20.12,22.95c-.12,0-.24-.02-.36-.07-.52-.2-.77-.78-.57-1.29l3.88-10.09c.2-.52.78-.77,1.29-.57.52.2.77.78.57,1.29l-3.88,10.09c-.15.4-.53.64-.93.64Z"/>
      <path d="M31.17,40.02c-.22,0-.44-.05-.65-.15-2.64-1.27-5.49-1.91-8.46-1.91s-5.82.64-8.46,1.91c-.74.36-1.64.04-2-.7s-.04-1.64.7-2c3.05-1.46,6.33-2.2,9.76-2.2s6.71.74,9.76,2.2c.75.36,1.06,1.25.7,2-.26.54-.79.85-1.35.85ZM32.76,31.79H11.37c-3.69,0-5.54,0-7.18-.84-1.45-.74-2.61-1.9-3.35-3.35-.84-1.64-.84-3.49-.84-7.18v-9.05c0-3.69,0-5.54.84-7.18.74-1.45,1.9-2.61,3.35-3.35,1.64-.84,3.49-.84,7.18-.84h21.39c3.69,0,5.54,0,7.18.84,1.45.74,2.61,1.9,3.35,3.35.84,1.64.84,3.49.84,7.18v9.05c0,3.69,0,5.54-.84,7.18-.74,1.45-1.9,2.61-3.35,3.35-1.64.84-3.49.84-7.18.84ZM11.37,3c-3.21,0-4.82,0-5.82.51-.88.45-1.59,1.16-2.04,2.04-.51,1-.51,2.61-.51,5.82v9.05c0,3.21,0,4.82.51,5.82.45.88,1.16,1.59,2.04,2.04,1,.51,2.61.51,5.82.51h21.39c3.21,0,4.82,0,5.82-.51.88-.45,1.59-1.16,2.04-2.04.51-1,.51-2.61.51-5.82v-9.05c0-3.21,0-4.82-.51-5.82-.45-.88-1.16-1.59-2.04-2.04-1-.51-2.61-.51-5.82-.51H11.37Z"/>
    </g>
  </g>
</svg>